<svg width="60" height="60" viewBox="0 0 60 60" fill="none" xmlns="http://www.w3.org/2000/svg">
<rect width="60" height="60" rx="10" fill="#EA5E20" fill-opacity="0.1"/>
<path d="M40 34H34V32H40V34ZM44 42H38V40H44V42ZM42 38H36V36H42V38Z" fill="#EA5E20"/>
<path d="M31.0029 34C30.9958 33.1562 30.7708 32.3286 30.3496 31.5974C29.9284 30.8662 29.3253 30.2564 28.5989 29.827L35.9999 17L34.2699 16L26.6929 29.126C25.763 28.9183 24.7958 28.947 23.8799 29.2096C22.964 29.4721 22.1285 29.9602 21.4499 30.629C17.7059 34.24 17.9959 42.682 18.0099 43.04C18.0202 43.2982 18.1301 43.5424 18.3166 43.7214C18.503 43.9004 18.7515 44.0002 19.0099 44H34.0009C34.2108 44 34.4153 43.934 34.5856 43.8112C34.7559 43.6885 34.8832 43.5153 34.9496 43.3162C35.0159 43.1171 35.018 42.9022 34.9554 42.7018C34.8928 42.5015 34.7688 42.3259 34.6009 42.2C31.0609 39.544 31.0029 34.054 31.0029 34ZM25.9299 30.997C26.7303 31.0058 27.4964 31.3228 28.069 31.8822C28.6415 32.4415 28.9764 33.2001 29.0039 34C29.0039 34.038 29.0059 34.208 29.0209 34.469L23.1209 31.845C23.5095 31.5245 23.958 31.2845 24.4402 31.1389C24.9225 30.9934 25.4288 30.9451 25.9299 30.997ZM29.4499 42C28.6506 41.1861 28.1411 40.132 27.9999 39H25.9999C26.0715 40.0643 26.404 41.0946 26.9679 42H24.7449C24.3336 40.7022 24.0834 39.3588 23.9999 38H21.9999C22.0644 39.3547 22.2876 40.6973 22.6649 42H19.9999C20.0309 40.164 20.2899 36.108 21.8029 33.447L29.3359 36.797C29.6978 38.6763 30.4695 40.4528 31.5959 42H29.4499Z" fill="#EA5E20"/>
</svg>
