<svg width="21" height="20" viewBox="0 0 21 20" fill="none" xmlns="http://www.w3.org/2000/svg">
<path d="M9.23413 3.07971C9.92058 2.52839 11.0674 2.52623 11.7751 3.0885V3.08948L17.2263 7.44885V7.44983C17.4455 7.62853 17.6662 7.93851 17.8142 8.32581C17.9608 8.70968 18.0041 9.08574 17.9626 9.36584L16.9148 15.6373C16.7552 16.556 15.8325 17.3336 14.9167 17.3336H6.08374C5.14911 17.3336 4.25337 16.5787 4.09351 15.6471L3.04468 9.36877V9.36584L3.03101 9.25647C3.00867 8.99103 3.05455 8.66101 3.18237 8.32581C3.32843 7.94291 3.54992 7.63559 3.77417 7.45667L3.77515 7.45569L9.23413 3.08069V3.07971ZM10.4998 10.8746C9.60605 10.8748 8.87494 11.6059 8.87476 12.4996V14.9996C8.87476 15.8935 9.60594 16.6245 10.4998 16.6246C11.3937 16.6246 12.1248 15.8936 12.1248 14.9996V12.4996C12.1246 11.6058 11.3936 10.8746 10.4998 10.8746Z" stroke="#878787" stroke-width="2"/>
</svg>
