<svg width="21" height="20" viewBox="0 0 21 20" fill="none" xmlns="http://www.w3.org/2000/svg">
<path d="M17.1708 18.3334H3.83748C3.37725 18.3334 3.00415 17.9603 3.00415 17.5V2.50002C3.00415 2.03979 3.37725 1.66669 3.83748 1.66669H17.1708C17.6311 1.66669 18.0042 2.03979 18.0042 2.50002V17.5C18.0042 17.9603 17.6311 18.3334 17.1708 18.3334ZM16.3375 16.6667V3.33335H4.67082V16.6667H16.3375ZM8.00415 5.00002V6.66669C8.00415 8.0474 9.12342 9.16669 10.5042 9.16669C11.8848 9.16669 13.0042 8.0474 13.0042 6.66669V5.00002H14.6708V6.66669C14.6708 8.96785 12.8053 10.8334 10.5042 10.8334C8.20297 10.8334 6.33748 8.96785 6.33748 6.66669V5.00002H8.00415Z" fill="#878787"/>
</svg>
