<svg width="21" height="20" viewBox="0 0 21 20" fill="none" xmlns="http://www.w3.org/2000/svg">
<path d="M10.5001 18.3334C5.89771 18.3334 2.16675 14.6024 2.16675 10C2.16675 5.39765 5.89771 1.66669 10.5001 1.66669C15.1024 1.66669 18.8334 5.39765 18.8334 10C18.8334 14.6024 15.1024 18.3334 10.5001 18.3334ZM10.5001 16.6667C14.182 16.6667 17.1667 13.6819 17.1667 10C17.1667 6.31812 14.182 3.33335 10.5001 3.33335C6.81818 3.33335 3.83341 6.31812 3.83341 10C3.83341 13.6819 6.81818 16.6667 10.5001 16.6667ZM6.33341 10H8.00008C8.00008 11.3808 9.11933 12.5 10.5001 12.5C11.8808 12.5 13.0001 11.3808 13.0001 10H14.6667C14.6667 12.3012 12.8012 14.1667 10.5001 14.1667C8.1989 14.1667 6.33341 12.3012 6.33341 10Z" fill="#4FAF5A"/>
</svg>
