<svg width="21" height="20" viewBox="0 0 21 20" fill="none" xmlns="http://www.w3.org/2000/svg">
<path d="M3.83333 1.66669H17.1667C17.6269 1.66669 18 2.03979 18 2.50002V18.5636C18 18.7938 17.8134 18.9804 17.5833 18.9804C17.5248 18.9804 17.467 18.9679 17.4136 18.9441L10.5 15.8594L3.58644 18.9441C3.37629 19.0379 3.12993 18.9435 3.03616 18.7334C3.01232 18.6799 3 18.6221 3 18.5636V2.50002C3 2.03979 3.3731 1.66669 3.83333 1.66669ZM16.3333 16.6371V3.33335H4.66667V16.6371L10.5 14.0344L16.3333 16.6371ZM10.5 11.25L8.05089 12.5376L8.51863 9.81044L6.53727 7.87912L9.27542 7.48124L10.5 5.00002L11.7246 7.48124L14.4628 7.87912L12.4813 9.81044L12.9491 12.5376L10.5 11.25Z" fill="#878787"/>
</svg>
